<svg xmlns="http://www.w3.org/2000/svg" xmlns:xlink="http://www.w3.org/1999/xlink" preserveAspectRatio="xMidYMid" width="40" height="40" viewBox="0 0 40 40">
  <defs>
    <style>
      .cls-1 {
        fill: #464646;
        opacity: 0.5;
      }

      .cls-2 {
        fill: #d7d7d7;
        fill-rule: evenodd;
      }
    </style>
  </defs>
  <rect x="1" y="1" width="38" height="38" class="cls-1"/>
  <path d="M31.737,15.908 L27.831,15.908 L27.831,19.058 L31.737,19.058 L31.521,21.218 L27.831,21.218 L27.831,26.078 L24.969,26.078 L24.969,13.748 L31.935,13.748 L31.737,15.908 ZM18.381,27.860 C19.497,27.068 19.785,26.366 19.785,23.936 L19.785,13.748 L22.665,13.748 L22.665,24.008 C22.665,26.852 22.233,28.292 20.361,29.697 L18.381,27.860 ZM10.443,26.078 L7.941,26.078 L7.941,13.748 C8.679,13.622 10.245,13.478 11.218,13.478 C15.016,13.478 18.328,14.810 18.328,19.094 C18.328,23.594 15.880,26.078 10.443,26.078 ZM11.470,15.602 C11.164,15.602 10.966,15.656 10.822,15.674 L10.822,23.918 C13.216,23.918 15.412,22.946 15.412,19.688 C15.412,16.682 13.432,15.602 11.470,15.602 Z" class="cls-2"/>
</svg>
